<svg xmlns="http://www.w3.org/2000/svg" width='1000' height='400'><svg xmlns="http://www.w3.org/2000/svg" id="stats_graph" width="100%" height="100%"><g transform="translate(30,12)"><defs><clipPath id="clip"><rect id="clip-rect" x="0" y="0" width="955" height="366"/></clipPath></defs><g class="x axis" transform="translate(0,366)" style="fill: none; stroke: black; stroke-opacity: 0.15;"><g class="tick" transform="translate(0,0)" style="opacity: 1;"><line y2="-366" x2="0"/><text dy=".71em" y="6" x="0" style="text-anchor: middle; font: 13px &quot;DejaVu Sans&quot;, Arial; stroke: none; fill: black;">0</text></g><g class="tick" transform="translate(191,0)" style="opacity: 1;"><line y2="-366" x2="0"/><text dy=".71em" y="6" x="0" style="text-anchor: middle; font: 13px &quot;DejaVu Sans&quot;, Arial; stroke: none; fill: black;">50</text></g><g class="tick" transform="translate(382,0)" style="opacity: 1;"><line y2="-366" x2="0"/><text dy=".71em" y="6" x="0" style="text-anchor: middle; font: 13px &quot;DejaVu Sans&quot;, Arial; stroke: none; fill: black;">100</text></g><g class="tick" transform="translate(573,0)" style="opacity: 1;"><line y2="-366" x2="0"/><text dy=".71em" y="6" x="0" style="text-anchor: middle; font: 13px &quot;DejaVu Sans&quot;, Arial; stroke: none; fill: black;">150</text></g><g class="tick" transform="translate(764,0)" style="opacity: 1;"><line y2="-366" x2="0"/><text dy=".71em" y="6" x="0" style="text-anchor: middle; font: 13px &quot;DejaVu Sans&quot;, Arial; stroke: none; fill: black;">200</text></g><g class="tick" transform="translate(955,0)" style="opacity: 1;"><line y2="-366" x2="0"/><text dy=".71em" y="6" x="0" style="text-anchor: middle; font: 13px &quot;DejaVu Sans&quot;, Arial; stroke: none; fill: black;">250</text></g><path class="domain" d="M0,-366V0H955V-366"/></g><g class="y axis" transform="translate(0,0)" style="fill: none; stroke: black; stroke-opacity: 0.15;"><g class="tick" transform="translate(0,366)" style="opacity: 1;"><line x2="955" y2="0"/><text dy=".32em" x="-6" y="0" style="text-anchor: end; font: 13px &quot;DejaVu Sans&quot;, Arial; stroke: none; fill: black;">0</text></g><g class="tick" transform="translate(0,292.8)" style="opacity: 1;"><line x2="955" y2="0"/><text dy=".32em" x="-6" y="0" style="text-anchor: end; font: 13px &quot;DejaVu Sans&quot;, Arial; stroke: none; fill: black;">10</text></g><g class="tick" transform="translate(0,219.6)" style="opacity: 1;"><line x2="955" y2="0"/><text dy=".32em" x="-6" y="0" style="text-anchor: end; font: 13px &quot;DejaVu Sans&quot;, Arial; stroke: none; fill: black;">20</text></g><g class="tick" transform="translate(0,146.4)" style="opacity: 1;"><line x2="955" y2="0"/><text dy=".32em" x="-6" y="0" style="text-anchor: end; font: 13px &quot;DejaVu Sans&quot;, Arial; stroke: none; fill: black;">30</text></g><g class="tick" transform="translate(0,73.19999999999999)" style="opacity: 1;"><line x2="955" y2="0"/><text dy=".32em" x="-6" y="0" style="text-anchor: end; font: 13px &quot;DejaVu Sans&quot;, Arial; stroke: none; fill: black;">40</text></g><g class="tick" transform="translate(0,0)" style="opacity: 1;"><line x2="955" y2="0"/><text dy=".32em" x="-6" y="0" style="text-anchor: end; font: 13px &quot;DejaVu Sans&quot;, Arial; stroke: none; fill: black;">50</text></g><path class="domain" d="M955,0H0V366H955"/></g><g class="layer" clip-path="url(#clip)" style="fill: rgb(1, 223, 1); fill-opacity: 1;"><rect x="3.8200000000000003" y="336.72" width="30.560000000000002" height="29.279999999999973"/><rect x="42.019999999999996" y="234.24" width="30.560000000000002" height="131.76"/><rect x="80.22" y="270.84" width="30.560000000000002" height="95.16000000000003"/><rect x="118.42" y="314.76" width="30.560000000000002" height="51.24000000000001"/><rect x="156.62" y="329.40000000000003" width="30.560000000000002" height="36.599999999999966"/><rect x="194.82" y="351.36" width="30.560000000000002" height="14.639999999999986"/><rect x="233.01999999999998" y="336.72" width="30.560000000000002" height="29.279999999999973"/><rect x="271.21999999999997" y="300.12" width="30.560000000000002" height="65.88"/><rect x="309.42" y="307.44" width="30.560000000000002" height="58.56"/><rect x="347.62" y="322.08" width="30.560000000000002" height="43.920000000000016"/><rect x="385.82000000000005" y="358.68" width="30.560000000000002" height="7.319999999999993"/><rect x="424.02" y="336.72" width="30.560000000000002" height="29.279999999999973"/><rect x="462.21999999999997" y="344.03999999999996" width="30.560000000000002" height="21.960000000000036"/><rect x="500.42" y="329.40000000000003" width="30.560000000000002" height="36.599999999999966"/><rect x="538.62" y="336.72" width="30.560000000000002" height="29.279999999999973"/><rect x="576.8199999999999" y="336.72" width="30.560000000000002" height="29.279999999999973"/><rect x="615.02" y="336.72" width="30.560000000000002" height="29.279999999999973"/><rect x="653.22" y="322.08" width="30.560000000000002" height="43.920000000000016"/><rect x="691.42" y="344.03999999999996" width="30.560000000000002" height="21.960000000000036"/><rect x="729.62" y="336.72" width="30.560000000000002" height="29.279999999999973"/><rect x="767.82" y="344.03999999999996" width="30.560000000000002" height="21.960000000000036"/><rect x="806.02" y="329.40000000000003" width="30.560000000000002" height="36.599999999999966"/><rect x="844.22" y="344.03999999999996" width="30.560000000000002" height="21.960000000000036"/><rect x="882.4200000000001" y="358.68" width="30.560000000000002" height="7.319999999999993"/><rect x="920.62" y="336.72" width="30.560000000000002" height="29.279999999999973"/></g><g class="layer" clip-path="url(#clip)" style="fill: red; fill-opacity: 0.6;"><rect x="3.8200000000000003" y="263.52" width="30.560000000000002" height="73.20000000000005"/><rect x="42.019999999999996" y="87.84" width="30.560000000000002" height="146.4"/><rect x="80.22" y="73.19999999999999" width="30.560000000000002" height="197.64"/><rect x="118.42" y="153.72000000000003" width="30.560000000000002" height="161.03999999999996"/><rect x="156.62" y="168.35999999999999" width="30.560000000000002" height="161.04000000000005"/><rect x="194.82" y="219.6" width="30.560000000000002" height="131.76000000000002"/><rect x="233.01999999999998" y="175.68" width="30.560000000000002" height="161.04000000000002"/><rect x="271.21999999999997" y="168.35999999999999" width="30.560000000000002" height="131.76000000000002"/><rect x="309.42" y="139.08" width="30.560000000000002" height="168.35999999999999"/><rect x="347.62" y="226.92" width="30.560000000000002" height="95.16"/><rect x="385.82000000000005" y="212.28000000000003" width="30.560000000000002" height="146.39999999999998"/><rect x="424.02" y="241.55999999999997" width="30.560000000000002" height="95.16000000000005"/><rect x="462.21999999999997" y="226.92" width="30.560000000000002" height="117.11999999999998"/><rect x="500.42" y="219.6" width="30.560000000000002" height="109.80000000000004"/><rect x="538.62" y="278.16" width="30.560000000000002" height="58.56"/><rect x="576.8199999999999" y="241.55999999999997" width="30.560000000000002" height="95.16000000000005"/><rect x="615.02" y="183" width="30.560000000000002" height="153.72000000000003"/><rect x="653.22" y="197.64000000000001" width="30.560000000000002" height="124.43999999999997"/><rect x="691.42" y="175.68" width="30.560000000000002" height="168.35999999999996"/><rect x="729.62" y="153.72000000000003" width="30.560000000000002" height="183"/><rect x="767.82" y="248.87999999999997" width="30.560000000000002" height="95.16"/><rect x="806.02" y="212.28000000000003" width="30.560000000000002" height="117.12"/><rect x="844.22" y="226.92" width="30.560000000000002" height="117.11999999999998"/><rect x="882.4200000000001" y="175.68" width="30.560000000000002" height="183"/><rect x="920.62" y="87.84" width="30.560000000000002" height="248.88000000000002"/></g><g class="layer" clip-path="url(#clip)" style="fill: orange; fill-opacity: 0.6;"><rect x="3.8200000000000003" y="263.52" width="30.560000000000002" height="0"/><rect x="42.019999999999996" y="73.19999999999999" width="30.560000000000002" height="14.640000000000015"/><rect x="80.22" y="65.88000000000002" width="30.560000000000002" height="7.319999999999965"/><rect x="118.42" y="146.4" width="30.560000000000002" height="7.320000000000022"/><rect x="156.62" y="153.72000000000003" width="30.560000000000002" height="14.639999999999958"/><rect x="194.82" y="183" width="30.560000000000002" height="36.599999999999994"/><rect x="233.01999999999998" y="153.72000000000003" width="30.560000000000002" height="21.95999999999998"/><rect x="271.21999999999997" y="139.08" width="30.560000000000002" height="29.279999999999973"/><rect x="309.42" y="58.56000000000001" width="30.560000000000002" height="80.52000000000001"/><rect x="347.62" y="219.6" width="30.560000000000002" height="7.319999999999993"/><rect x="385.82000000000005" y="190.32" width="30.560000000000002" height="21.960000000000036"/><rect x="424.02" y="226.92" width="30.560000000000002" height="14.639999999999986"/><rect x="462.21999999999997" y="219.6" width="30.560000000000002" height="7.319999999999993"/><rect x="500.42" y="190.32" width="30.560000000000002" height="29.28"/><rect x="538.62" y="278.16" width="30.560000000000002" height="0"/><rect x="576.8199999999999" y="212.28000000000003" width="30.560000000000002" height="29.279999999999944"/><rect x="615.02" y="131.76" width="30.560000000000002" height="51.24000000000001"/><rect x="653.22" y="161.04" width="30.560000000000002" height="36.60000000000002"/><rect x="691.42" y="139.08" width="30.560000000000002" height="36.599999999999994"/><rect x="729.62" y="139.08" width="30.560000000000002" height="14.640000000000015"/><rect x="767.82" y="226.92" width="30.560000000000002" height="21.95999999999998"/><rect x="806.02" y="175.68" width="30.560000000000002" height="36.60000000000002"/><rect x="844.22" y="219.6" width="30.560000000000002" height="7.319999999999993"/><rect x="882.4200000000001" y="109.80000000000001" width="30.560000000000002" height="65.88"/><rect x="920.62" y="65.88000000000002" width="30.560000000000002" height="21.95999999999998"/></g><g class="layer" clip-path="url(#clip)" style="fill: rgb(255, 51, 153); fill-opacity: 0.6;"><rect x="3.8200000000000003" y="263.52" width="30.560000000000002" height="0"/><rect x="42.019999999999996" y="58.56000000000001" width="30.560000000000002" height="14.63999999999998"/><rect x="80.22" y="58.56000000000001" width="30.560000000000002" height="7.3200000000000145"/><rect x="118.42" y="139.08" width="30.560000000000002" height="7.319999999999993"/><rect x="156.62" y="153.72000000000003" width="30.560000000000002" height="0"/><rect x="194.82" y="183" width="30.560000000000002" height="0"/><rect x="233.01999999999998" y="153.72000000000003" width="30.560000000000002" height="0"/><rect x="271.21999999999997" y="124.43999999999998" width="30.560000000000002" height="14.640000000000029"/><rect x="309.42" y="51.24" width="30.560000000000002" height="7.320000000000007"/><rect x="347.62" y="219.6" width="30.560000000000002" height="0"/><rect x="385.82000000000005" y="190.32" width="30.560000000000002" height="0"/><rect x="424.02" y="226.92" width="30.560000000000002" height="0"/><rect x="462.21999999999997" y="204.96" width="30.560000000000002" height="14.639999999999986"/><rect x="500.42" y="183" width="30.560000000000002" height="7.319999999999993"/><rect x="538.62" y="256.2" width="30.560000000000002" height="21.960000000000036"/><rect x="576.8199999999999" y="204.96" width="30.560000000000002" height="7.320000000000022"/><rect x="615.02" y="117.11999999999998" width="30.560000000000002" height="14.640000000000015"/><rect x="653.22" y="139.08" width="30.560000000000002" height="21.95999999999998"/><rect x="691.42" y="131.76" width="30.560000000000002" height="7.320000000000022"/><rect x="729.62" y="131.76" width="30.560000000000002" height="7.320000000000022"/><rect x="767.82" y="175.68" width="30.560000000000002" height="51.23999999999998"/><rect x="806.02" y="139.08" width="30.560000000000002" height="36.599999999999994"/><rect x="844.22" y="212.28000000000003" width="30.560000000000002" height="7.319999999999965"/><rect x="882.4200000000001" y="95.16" width="30.560000000000002" height="14.640000000000015"/><rect x="920.62" y="51.24" width="30.560000000000002" height="14.640000000000022"/></g><g class="layer" clip-path="url(#clip)" style="fill: grey; fill-opacity: 0.6;"><rect x="3.8200000000000003" y="263.52" width="30.560000000000002" height="0"/><rect x="42.019999999999996" y="58.56000000000001" width="30.560000000000002" height="0"/><rect x="80.22" y="43.92" width="30.560000000000002" height="14.640000000000008"/><rect x="118.42" y="124.43999999999998" width="30.560000000000002" height="14.640000000000029"/><rect x="156.62" y="146.4" width="30.560000000000002" height="7.320000000000022"/><rect x="194.82" y="161.04" width="30.560000000000002" height="21.960000000000008"/><rect x="233.01999999999998" y="153.72000000000003" width="30.560000000000002" height="0"/><rect x="271.21999999999997" y="124.43999999999998" width="30.560000000000002" height="0"/><rect x="309.42" y="43.92" width="30.560000000000002" height="7.32"/><rect x="347.62" y="212.28000000000003" width="30.560000000000002" height="7.319999999999965"/><rect x="385.82000000000005" y="175.68" width="30.560000000000002" height="14.639999999999986"/><rect x="424.02" y="212.28000000000003" width="30.560000000000002" height="14.639999999999958"/><rect x="462.21999999999997" y="183" width="30.560000000000002" height="21.960000000000008"/><rect x="500.42" y="175.68" width="30.560000000000002" height="7.319999999999993"/><rect x="538.62" y="248.87999999999997" width="30.560000000000002" height="7.320000000000022"/><rect x="576.8199999999999" y="204.96" width="30.560000000000002" height="0"/><rect x="615.02" y="109.80000000000001" width="30.560000000000002" height="7.319999999999965"/><rect x="653.22" y="139.08" width="30.560000000000002" height="0"/><rect x="691.42" y="131.76" width="30.560000000000002" height="0"/><rect x="729.62" y="131.76" width="30.560000000000002" height="0"/><rect x="767.82" y="175.68" width="30.560000000000002" height="0"/><rect x="806.02" y="139.08" width="30.560000000000002" height="0"/><rect x="844.22" y="204.96" width="30.560000000000002" height="7.320000000000022"/><rect x="882.4200000000001" y="87.84" width="30.560000000000002" height="7.319999999999993"/><rect x="920.62" y="43.92" width="30.560000000000002" height="7.32"/></g><g class="layer" clip-path="url(#clip)" style="fill: purple; fill-opacity: 0.6;"><rect x="3.8200000000000003" y="263.52" width="30.560000000000002" height="0"/><rect x="42.019999999999996" y="51.24" width="30.560000000000002" height="7.320000000000007"/><rect x="80.22" y="43.92" width="30.560000000000002" height="0"/><rect x="118.42" y="124.43999999999998" width="30.560000000000002" height="0"/><rect x="156.62" y="146.4" width="30.560000000000002" height="0"/><rect x="194.82" y="161.04" width="30.560000000000002" height="0"/><rect x="233.01999999999998" y="146.4" width="30.560000000000002" height="7.320000000000022"/><rect x="271.21999999999997" y="117.11999999999998" width="30.560000000000002" height="7.320000000000007"/><rect x="309.42" y="36.599999999999994" width="30.560000000000002" height="7.320000000000007"/><rect x="347.62" y="212.28000000000003" width="30.560000000000002" height="0"/><rect x="385.82000000000005" y="168.35999999999999" width="30.560000000000002" height="7.320000000000022"/><rect x="424.02" y="204.96" width="30.560000000000002" height="7.320000000000022"/><rect x="462.21999999999997" y="183" width="30.560000000000002" height="0"/><rect x="500.42" y="175.68" width="30.560000000000002" height="0"/><rect x="538.62" y="248.87999999999997" width="30.560000000000002" height="0"/><rect x="576.8199999999999" y="204.96" width="30.560000000000002" height="0"/><rect x="615.02" y="109.80000000000001" width="30.560000000000002" height="0"/><rect x="653.22" y="139.08" width="30.560000000000002" height="0"/><rect x="691.42" y="131.76" width="30.560000000000002" height="0"/><rect x="729.62" y="131.76" width="30.560000000000002" height="0"/><rect x="767.82" y="175.68" width="30.560000000000002" height="0"/><rect x="806.02" y="139.08" width="30.560000000000002" height="0"/><rect x="844.22" y="204.96" width="30.560000000000002" height="0"/><rect x="882.4200000000001" y="87.84" width="30.560000000000002" height="0"/><rect x="920.62" y="43.92" width="30.560000000000002" height="0"/></g><g class="layer" clip-path="url(#clip)" style="fill: blue; fill-opacity: 0.6;"><rect x="3.8200000000000003" y="263.52" width="30.560000000000002" height="0"/><rect x="42.019999999999996" y="51.24" width="30.560000000000002" height="0"/><rect x="80.22" y="43.92" width="30.560000000000002" height="0"/><rect x="118.42" y="124.43999999999998" width="30.560000000000002" height="0"/><rect x="156.62" y="146.4" width="30.560000000000002" height="0"/><rect x="194.82" y="161.04" width="30.560000000000002" height="0"/><rect x="233.01999999999998" y="146.4" width="30.560000000000002" height="0"/><rect x="271.21999999999997" y="117.11999999999998" width="30.560000000000002" height="0"/><rect x="309.42" y="36.599999999999994" width="30.560000000000002" height="0"/><rect x="347.62" y="212.28000000000003" width="30.560000000000002" height="0"/><rect x="385.82000000000005" y="168.35999999999999" width="30.560000000000002" height="0"/><rect x="424.02" y="204.96" width="30.560000000000002" height="0"/><rect x="462.21999999999997" y="183" width="30.560000000000002" height="0"/><rect x="500.42" y="175.68" width="30.560000000000002" height="0"/><rect x="538.62" y="248.87999999999997" width="30.560000000000002" height="0"/><rect x="576.8199999999999" y="204.96" width="30.560000000000002" height="0"/><rect x="615.02" y="109.80000000000001" width="30.560000000000002" height="0"/><rect x="653.22" y="139.08" width="30.560000000000002" height="0"/><rect x="691.42" y="131.76" width="30.560000000000002" height="0"/><rect x="729.62" y="131.76" width="30.560000000000002" height="0"/><rect x="767.82" y="175.68" width="30.560000000000002" height="0"/><rect x="806.02" y="139.08" width="30.560000000000002" height="0"/><rect x="844.22" y="204.96" width="30.560000000000002" height="0"/><rect x="882.4200000000001" y="87.84" width="30.560000000000002" height="0"/><rect x="920.62" y="43.92" width="30.560000000000002" height="0"/></g><rect x="0" y="0" height="366" width="955" style="stroke: black; fill: none; stroke-width: 1;"/></g><g transform="translate(45,20)"><rect width="126.953125" height="137.1875" x="-7" y="-1" style="fill: rgb(255, 255, 255); fill-opacity: 0.7;"/><rect y="6.3" x="0" width="15" height="11.700000000000001" style="fill: rgb(1, 223, 1);"/><text y="18" x="20" style="font: 13px &quot;DejaVu Sans&quot;, Arial;">correct</text><rect y="24.3" x="0" width="15" height="11.700000000000001" style="fill: red;"/><text y="36" x="20" style="font: 13px &quot;DejaVu Sans&quot;, Arial;">wrong-answer</text><rect y="42.3" x="0" width="15" height="11.700000000000001" style="fill: orange;"/><text y="54" x="20" style="font: 13px &quot;DejaVu Sans&quot;, Arial;">timelimit</text><rect y="60.3" x="0" width="15" height="11.700000000000001" style="fill: rgb(255, 51, 153);"/><text y="72" x="20" style="font: 13px &quot;DejaVu Sans&quot;, Arial;">run-error</text><rect y="78.3" x="0" width="15" height="11.700000000000001" style="fill: grey;"/><text y="90" x="20" style="font: 13px &quot;DejaVu Sans&quot;, Arial;">compiler-error</text><rect y="96.3" x="0" width="15" height="11.700000000000001" style="fill: purple;"/><text y="108" x="20" style="font: 13px &quot;DejaVu Sans&quot;, Arial;">no-output</text><rect y="114.3" x="0" width="15" height="11.700000000000001" style="fill: blue;"/><text y="126" x="20" style="font: 13px &quot;DejaVu Sans&quot;, Arial;">frozen</text></g></svg></svg>