<svg xmlns="http://www.w3.org/2000/svg" width='1000' height='400'><svg xmlns="http://www.w3.org/2000/svg" id="stats_graph" width="100%" height="100%"><g transform="translate(30,12)"><defs><clipPath id="clip"><rect id="clip-rect" x="0" y="0" width="955" height="366"/></clipPath></defs><g class="x axis" transform="translate(0,366)" style="fill: none; stroke: black; stroke-opacity: 0.15;"><g class="tick" transform="translate(0,0)" style="opacity: 1;"><line y2="-366" x2="0"/><text dy=".71em" y="6" x="0" style="text-anchor: middle; font: 13px &quot;DejaVu Sans&quot;, Arial; stroke: none; fill: black;">0</text></g><g class="tick" transform="translate(191,0)" style="opacity: 1;"><line y2="-366" x2="0"/><text dy=".71em" y="6" x="0" style="text-anchor: middle; font: 13px &quot;DejaVu Sans&quot;, Arial; stroke: none; fill: black;">50</text></g><g class="tick" transform="translate(382,0)" style="opacity: 1;"><line y2="-366" x2="0"/><text dy=".71em" y="6" x="0" style="text-anchor: middle; font: 13px &quot;DejaVu Sans&quot;, Arial; stroke: none; fill: black;">100</text></g><g class="tick" transform="translate(573,0)" style="opacity: 1;"><line y2="-366" x2="0"/><text dy=".71em" y="6" x="0" style="text-anchor: middle; font: 13px &quot;DejaVu Sans&quot;, Arial; stroke: none; fill: black;">150</text></g><g class="tick" transform="translate(764,0)" style="opacity: 1;"><line y2="-366" x2="0"/><text dy=".71em" y="6" x="0" style="text-anchor: middle; font: 13px &quot;DejaVu Sans&quot;, Arial; stroke: none; fill: black;">200</text></g><g class="tick" transform="translate(955,0)" style="opacity: 1;"><line y2="-366" x2="0"/><text dy=".71em" y="6" x="0" style="text-anchor: middle; font: 13px &quot;DejaVu Sans&quot;, Arial; stroke: none; fill: black;">250</text></g><path class="domain" d="M0,-366V0H955V-366"/></g><g class="y axis" transform="translate(0,0)" style="fill: none; stroke: black; stroke-opacity: 0.15;"><g class="tick" transform="translate(0,366)" style="opacity: 1;"><line x2="955" y2="0"/><text dy=".32em" x="-6" y="0" style="text-anchor: end; font: 13px &quot;DejaVu Sans&quot;, Arial; stroke: none; fill: black;">0</text></g><g class="tick" transform="translate(0,305)" style="opacity: 1;"><line x2="955" y2="0"/><text dy=".32em" x="-6" y="0" style="text-anchor: end; font: 13px &quot;DejaVu Sans&quot;, Arial; stroke: none; fill: black;">1</text></g><g class="tick" transform="translate(0,244.00000000000003)" style="opacity: 1;"><line x2="955" y2="0"/><text dy=".32em" x="-6" y="0" style="text-anchor: end; font: 13px &quot;DejaVu Sans&quot;, Arial; stroke: none; fill: black;">2</text></g><g class="tick" transform="translate(0,183)" style="opacity: 1;"><line x2="955" y2="0"/><text dy=".32em" x="-6" y="0" style="text-anchor: end; font: 13px &quot;DejaVu Sans&quot;, Arial; stroke: none; fill: black;">3</text></g><g class="tick" transform="translate(0,122.00000000000001)" style="opacity: 1;"><line x2="955" y2="0"/><text dy=".32em" x="-6" y="0" style="text-anchor: end; font: 13px &quot;DejaVu Sans&quot;, Arial; stroke: none; fill: black;">4</text></g><g class="tick" transform="translate(0,60.999999999999986)" style="opacity: 1;"><line x2="955" y2="0"/><text dy=".32em" x="-6" y="0" style="text-anchor: end; font: 13px &quot;DejaVu Sans&quot;, Arial; stroke: none; fill: black;">5</text></g><g class="tick" transform="translate(0,0)" style="opacity: 1;"><line x2="955" y2="0"/><text dy=".32em" x="-6" y="0" style="text-anchor: end; font: 13px &quot;DejaVu Sans&quot;, Arial; stroke: none; fill: black;">6</text></g><path class="domain" d="M955,0H0V366H955"/></g><g class="layer" clip-path="url(#clip)" style="fill: rgb(1, 223, 1); fill-opacity: 1;"><rect x="3.8200000000000003" y="366" width="30.560000000000002" height="0"/><rect x="42.019999999999996" y="366" width="30.560000000000002" height="0"/><rect x="80.22" y="366" width="30.560000000000002" height="0"/><rect x="118.42" y="366" width="30.560000000000002" height="0"/><rect x="156.62" y="366" width="30.560000000000002" height="0"/><rect x="194.82" y="366" width="30.560000000000002" height="0"/><rect x="233.01999999999998" y="366" width="30.560000000000002" height="0"/><rect x="271.21999999999997" y="366" width="30.560000000000002" height="0"/><rect x="309.42" y="366" width="30.560000000000002" height="0"/><rect x="347.62" y="366" width="30.560000000000002" height="0"/><rect x="385.82000000000005" y="366" width="30.560000000000002" height="0"/><rect x="424.02" y="366" width="30.560000000000002" height="0"/><rect x="462.21999999999997" y="366" width="30.560000000000002" height="0"/><rect x="500.42" y="305" width="30.560000000000002" height="61"/><rect x="538.62" y="366" width="30.560000000000002" height="0"/><rect x="576.8199999999999" y="305" width="30.560000000000002" height="61"/><rect x="615.02" y="366" width="30.560000000000002" height="0"/><rect x="653.22" y="366" width="30.560000000000002" height="0"/><rect x="691.42" y="366" width="30.560000000000002" height="0"/><rect x="729.62" y="366" width="30.560000000000002" height="0"/><rect x="767.82" y="244.00000000000003" width="30.560000000000002" height="121.99999999999997"/><rect x="806.02" y="366" width="30.560000000000002" height="0"/><rect x="844.22" y="305" width="30.560000000000002" height="61"/><rect x="882.4200000000001" y="366" width="30.560000000000002" height="0"/><rect x="920.62" y="366" width="30.560000000000002" height="0"/></g><g class="layer" clip-path="url(#clip)" style="fill: red; fill-opacity: 0.6;"><rect x="3.8200000000000003" y="366" width="30.560000000000002" height="0"/><rect x="42.019999999999996" y="366" width="30.560000000000002" height="0"/><rect x="80.22" y="366" width="30.560000000000002" height="0"/><rect x="118.42" y="366" width="30.560000000000002" height="0"/><rect x="156.62" y="366" width="30.560000000000002" height="0"/><rect x="194.82" y="366" width="30.560000000000002" height="0"/><rect x="233.01999999999998" y="366" width="30.560000000000002" height="0"/><rect x="271.21999999999997" y="366" width="30.560000000000002" height="0"/><rect x="309.42" y="305" width="30.560000000000002" height="61"/><rect x="347.62" y="366" width="30.560000000000002" height="0"/><rect x="385.82000000000005" y="366" width="30.560000000000002" height="0"/><rect x="424.02" y="305" width="30.560000000000002" height="61"/><rect x="462.21999999999997" y="366" width="30.560000000000002" height="0"/><rect x="500.42" y="183" width="30.560000000000002" height="122"/><rect x="538.62" y="244.00000000000003" width="30.560000000000002" height="121.99999999999997"/><rect x="576.8199999999999" y="244.00000000000003" width="30.560000000000002" height="60.99999999999997"/><rect x="615.02" y="366" width="30.560000000000002" height="0"/><rect x="653.22" y="366" width="30.560000000000002" height="0"/><rect x="691.42" y="305" width="30.560000000000002" height="61"/><rect x="729.62" y="60.999999999999986" width="30.560000000000002" height="305"/><rect x="767.82" y="183" width="30.560000000000002" height="61.00000000000003"/><rect x="806.02" y="366" width="30.560000000000002" height="0"/><rect x="844.22" y="305" width="30.560000000000002" height="0"/><rect x="882.4200000000001" y="366" width="30.560000000000002" height="0"/><rect x="920.62" y="305" width="30.560000000000002" height="61"/></g><g class="layer" clip-path="url(#clip)" style="fill: orange; fill-opacity: 0.6;"><rect x="3.8200000000000003" y="366" width="30.560000000000002" height="0"/><rect x="42.019999999999996" y="366" width="30.560000000000002" height="0"/><rect x="80.22" y="366" width="30.560000000000002" height="0"/><rect x="118.42" y="366" width="30.560000000000002" height="0"/><rect x="156.62" y="366" width="30.560000000000002" height="0"/><rect x="194.82" y="366" width="30.560000000000002" height="0"/><rect x="233.01999999999998" y="366" width="30.560000000000002" height="0"/><rect x="271.21999999999997" y="366" width="30.560000000000002" height="0"/><rect x="309.42" y="305" width="30.560000000000002" height="0"/><rect x="347.62" y="366" width="30.560000000000002" height="0"/><rect x="385.82000000000005" y="366" width="30.560000000000002" height="0"/><rect x="424.02" y="305" width="30.560000000000002" height="0"/><rect x="462.21999999999997" y="366" width="30.560000000000002" height="0"/><rect x="500.42" y="183" width="30.560000000000002" height="0"/><rect x="538.62" y="244.00000000000003" width="30.560000000000002" height="0"/><rect x="576.8199999999999" y="244.00000000000003" width="30.560000000000002" height="0"/><rect x="615.02" y="366" width="30.560000000000002" height="0"/><rect x="653.22" y="366" width="30.560000000000002" height="0"/><rect x="691.42" y="305" width="30.560000000000002" height="0"/><rect x="729.62" y="60.999999999999986" width="30.560000000000002" height="0"/><rect x="767.82" y="183" width="30.560000000000002" height="0"/><rect x="806.02" y="366" width="30.560000000000002" height="0"/><rect x="844.22" y="305" width="30.560000000000002" height="0"/><rect x="882.4200000000001" y="366" width="30.560000000000002" height="0"/><rect x="920.62" y="305" width="30.560000000000002" height="0"/></g><g class="layer" clip-path="url(#clip)" style="fill: rgb(255, 51, 153); fill-opacity: 0.6;"><rect x="3.8200000000000003" y="366" width="30.560000000000002" height="0"/><rect x="42.019999999999996" y="366" width="30.560000000000002" height="0"/><rect x="80.22" y="366" width="30.560000000000002" height="0"/><rect x="118.42" y="366" width="30.560000000000002" height="0"/><rect x="156.62" y="366" width="30.560000000000002" height="0"/><rect x="194.82" y="366" width="30.560000000000002" height="0"/><rect x="233.01999999999998" y="366" width="30.560000000000002" height="0"/><rect x="271.21999999999997" y="366" width="30.560000000000002" height="0"/><rect x="309.42" y="305" width="30.560000000000002" height="0"/><rect x="347.62" y="366" width="30.560000000000002" height="0"/><rect x="385.82000000000005" y="366" width="30.560000000000002" height="0"/><rect x="424.02" y="305" width="30.560000000000002" height="0"/><rect x="462.21999999999997" y="366" width="30.560000000000002" height="0"/><rect x="500.42" y="122.00000000000001" width="30.560000000000002" height="60.999999999999986"/><rect x="538.62" y="244.00000000000003" width="30.560000000000002" height="0"/><rect x="576.8199999999999" y="244.00000000000003" width="30.560000000000002" height="0"/><rect x="615.02" y="366" width="30.560000000000002" height="0"/><rect x="653.22" y="366" width="30.560000000000002" height="0"/><rect x="691.42" y="305" width="30.560000000000002" height="0"/><rect x="729.62" y="60.999999999999986" width="30.560000000000002" height="0"/><rect x="767.82" y="183" width="30.560000000000002" height="0"/><rect x="806.02" y="366" width="30.560000000000002" height="0"/><rect x="844.22" y="305" width="30.560000000000002" height="0"/><rect x="882.4200000000001" y="366" width="30.560000000000002" height="0"/><rect x="920.62" y="305" width="30.560000000000002" height="0"/></g><g class="layer" clip-path="url(#clip)" style="fill: grey; fill-opacity: 0.6;"><rect x="3.8200000000000003" y="366" width="30.560000000000002" height="0"/><rect x="42.019999999999996" y="366" width="30.560000000000002" height="0"/><rect x="80.22" y="366" width="30.560000000000002" height="0"/><rect x="118.42" y="366" width="30.560000000000002" height="0"/><rect x="156.62" y="366" width="30.560000000000002" height="0"/><rect x="194.82" y="366" width="30.560000000000002" height="0"/><rect x="233.01999999999998" y="366" width="30.560000000000002" height="0"/><rect x="271.21999999999997" y="366" width="30.560000000000002" height="0"/><rect x="309.42" y="305" width="30.560000000000002" height="0"/><rect x="347.62" y="366" width="30.560000000000002" height="0"/><rect x="385.82000000000005" y="366" width="30.560000000000002" height="0"/><rect x="424.02" y="305" width="30.560000000000002" height="0"/><rect x="462.21999999999997" y="366" width="30.560000000000002" height="0"/><rect x="500.42" y="122.00000000000001" width="30.560000000000002" height="0"/><rect x="538.62" y="244.00000000000003" width="30.560000000000002" height="0"/><rect x="576.8199999999999" y="244.00000000000003" width="30.560000000000002" height="0"/><rect x="615.02" y="366" width="30.560000000000002" height="0"/><rect x="653.22" y="366" width="30.560000000000002" height="0"/><rect x="691.42" y="305" width="30.560000000000002" height="0"/><rect x="729.62" y="60.999999999999986" width="30.560000000000002" height="0"/><rect x="767.82" y="183" width="30.560000000000002" height="0"/><rect x="806.02" y="366" width="30.560000000000002" height="0"/><rect x="844.22" y="305" width="30.560000000000002" height="0"/><rect x="882.4200000000001" y="366" width="30.560000000000002" height="0"/><rect x="920.62" y="305" width="30.560000000000002" height="0"/></g><g class="layer" clip-path="url(#clip)" style="fill: purple; fill-opacity: 0.6;"><rect x="3.8200000000000003" y="366" width="30.560000000000002" height="0"/><rect x="42.019999999999996" y="366" width="30.560000000000002" height="0"/><rect x="80.22" y="366" width="30.560000000000002" height="0"/><rect x="118.42" y="366" width="30.560000000000002" height="0"/><rect x="156.62" y="366" width="30.560000000000002" height="0"/><rect x="194.82" y="366" width="30.560000000000002" height="0"/><rect x="233.01999999999998" y="366" width="30.560000000000002" height="0"/><rect x="271.21999999999997" y="366" width="30.560000000000002" height="0"/><rect x="309.42" y="305" width="30.560000000000002" height="0"/><rect x="347.62" y="366" width="30.560000000000002" height="0"/><rect x="385.82000000000005" y="366" width="30.560000000000002" height="0"/><rect x="424.02" y="305" width="30.560000000000002" height="0"/><rect x="462.21999999999997" y="366" width="30.560000000000002" height="0"/><rect x="500.42" y="122.00000000000001" width="30.560000000000002" height="0"/><rect x="538.62" y="244.00000000000003" width="30.560000000000002" height="0"/><rect x="576.8199999999999" y="244.00000000000003" width="30.560000000000002" height="0"/><rect x="615.02" y="366" width="30.560000000000002" height="0"/><rect x="653.22" y="366" width="30.560000000000002" height="0"/><rect x="691.42" y="305" width="30.560000000000002" height="0"/><rect x="729.62" y="60.999999999999986" width="30.560000000000002" height="0"/><rect x="767.82" y="183" width="30.560000000000002" height="0"/><rect x="806.02" y="366" width="30.560000000000002" height="0"/><rect x="844.22" y="305" width="30.560000000000002" height="0"/><rect x="882.4200000000001" y="366" width="30.560000000000002" height="0"/><rect x="920.62" y="305" width="30.560000000000002" height="0"/></g><g class="layer" clip-path="url(#clip)" style="fill: blue; fill-opacity: 0.6;"><rect x="3.8200000000000003" y="366" width="30.560000000000002" height="0"/><rect x="42.019999999999996" y="366" width="30.560000000000002" height="0"/><rect x="80.22" y="366" width="30.560000000000002" height="0"/><rect x="118.42" y="366" width="30.560000000000002" height="0"/><rect x="156.62" y="366" width="30.560000000000002" height="0"/><rect x="194.82" y="366" width="30.560000000000002" height="0"/><rect x="233.01999999999998" y="366" width="30.560000000000002" height="0"/><rect x="271.21999999999997" y="366" width="30.560000000000002" height="0"/><rect x="309.42" y="305" width="30.560000000000002" height="0"/><rect x="347.62" y="366" width="30.560000000000002" height="0"/><rect x="385.82000000000005" y="366" width="30.560000000000002" height="0"/><rect x="424.02" y="305" width="30.560000000000002" height="0"/><rect x="462.21999999999997" y="366" width="30.560000000000002" height="0"/><rect x="500.42" y="122.00000000000001" width="30.560000000000002" height="0"/><rect x="538.62" y="244.00000000000003" width="30.560000000000002" height="0"/><rect x="576.8199999999999" y="244.00000000000003" width="30.560000000000002" height="0"/><rect x="615.02" y="366" width="30.560000000000002" height="0"/><rect x="653.22" y="366" width="30.560000000000002" height="0"/><rect x="691.42" y="305" width="30.560000000000002" height="0"/><rect x="729.62" y="60.999999999999986" width="30.560000000000002" height="0"/><rect x="767.82" y="183" width="30.560000000000002" height="0"/><rect x="806.02" y="366" width="30.560000000000002" height="0"/><rect x="844.22" y="305" width="30.560000000000002" height="0"/><rect x="882.4200000000001" y="366" width="30.560000000000002" height="0"/><rect x="920.62" y="305" width="30.560000000000002" height="0"/></g><rect x="0" y="0" height="366" width="955" style="stroke: black; fill: none; stroke-width: 1;"/></g><g transform="translate(45,20)"><rect width="126.953125" height="137.1875" x="-7" y="-1" style="fill: rgb(255, 255, 255); fill-opacity: 0.7;"/><rect y="6.3" x="0" width="15" height="11.700000000000001" style="fill: rgb(1, 223, 1);"/><text y="18" x="20" style="font: 13px &quot;DejaVu Sans&quot;, Arial;">correct</text><rect y="24.3" x="0" width="15" height="11.700000000000001" style="fill: red;"/><text y="36" x="20" style="font: 13px &quot;DejaVu Sans&quot;, Arial;">wrong-answer</text><rect y="42.3" x="0" width="15" height="11.700000000000001" style="fill: orange;"/><text y="54" x="20" style="font: 13px &quot;DejaVu Sans&quot;, Arial;">timelimit</text><rect y="60.3" x="0" width="15" height="11.700000000000001" style="fill: rgb(255, 51, 153);"/><text y="72" x="20" style="font: 13px &quot;DejaVu Sans&quot;, Arial;">run-error</text><rect y="78.3" x="0" width="15" height="11.700000000000001" style="fill: grey;"/><text y="90" x="20" style="font: 13px &quot;DejaVu Sans&quot;, Arial;">compiler-error</text><rect y="96.3" x="0" width="15" height="11.700000000000001" style="fill: purple;"/><text y="108" x="20" style="font: 13px &quot;DejaVu Sans&quot;, Arial;">no-output</text><rect y="114.3" x="0" width="15" height="11.700000000000001" style="fill: blue;"/><text y="126" x="20" style="font: 13px &quot;DejaVu Sans&quot;, Arial;">frozen</text></g></svg></svg>